# xmcd
# 
# Track frame offsets:
#     150
#     16174
#     33871
#     51718
#     67618
#     82812
#     100881
#     118311
#     135550
#     151158
#     169085
#     184244
#     201216
#     215545
#     234334
# 
# Disc length: 3303
# 
# Revision: 0
# Processed by: cddbd v1.5.2PL0 Copyright (c) Steve Scherf et al.
# Submitted via: fre:ac v1.0.27
# 
DISCID=c20ce50f
DTITLE=Due West - Due West
DYEAR=2010
DGENRE=Country
TTITLE0=22 Hours a Day
TTITLE1=Country Music Made a Man Out Of Me
TTITLE2=When the Smoke Clears
TTITLE3=Good to Be Loved By You
TTITLE4=Bible and the Belt
TTITLE5=I Get That All the Time
TTITLE6=County Fair
TTITLE7=Try Living in a Small Town
TTITLE8=Wake Up the Neighbors
TTITLE9=Sweet Gravity
TTITLE10=Tip Jar
TTITLE11=Don't Rock It
TTITLE12=Tell Her
TTITLE13=Due West
TTITLE14=So Long My Friend
EXTD=
EXTT0=
EXTT1=
EXTT2=
EXTT3=
EXTT4=
EXTT5=
EXTT6=
EXTT7=
EXTT8=
EXTT9=
EXTT10=
EXTT11=
EXTT12=
EXTT13=
EXTT14=
PLAYORDER=
